<svg width="248" height="42" viewBox="0 0 248 42" fill="none" xmlns="http://www.w3.org/2000/svg">
<path d="M6.80078 2.85596H11.8822C14.8699 2.85596 16.6502 4.58941 16.6502 6.88032C16.6502 8.4305 15.9091 9.59887 14.6483 10.2709V10.4083C15.7027 10.7672 17.1851 11.8898 17.1851 14.112C17.1851 16.945 14.9845 18.5792 12.333 18.5792H6.80078V2.85596ZM11.8134 9.65996C13.5861 9.65996 14.7782 8.60614 14.7782 7.01014C14.7782 5.41414 13.5632 4.47487 11.8745 4.47487H8.59646V9.65996H11.8134ZM12.0121 16.9832C13.8765 16.9832 15.2901 16.0821 15.2901 14.0661C15.2901 12.0501 13.6243 11.1872 11.8057 11.1872H8.58881V16.9832H12.0044H12.0121Z" fill="#FDC010"/>
<path d="M24.8571 2.85596H26.989L33.0332 18.5792H31.1229L29.7093 14.8527H22.1139L20.7003 18.5792H18.79L24.8571 2.85596ZM29.0827 13.188L25.9804 4.96359H25.8428L22.7405 13.188H29.0827Z" fill="#FDC010"/>
<path d="M35.8065 2.85596H37.6251V16.9374H44.4104V18.5792H35.7988V2.85596H35.8065Z" fill="#FDC010"/>
<path d="M52.694 2.85596H54.8259L60.8701 18.5792H58.9598L57.5462 14.8527H49.9509L48.5372 18.5792H46.627L52.694 2.85596ZM56.9196 13.188L53.8173 4.96359H53.6797L50.5774 13.188H56.9196Z" fill="#FDC010"/>
<path d="M63.6436 2.85596H65.508L73.7375 15.4178H73.8751V2.85596H75.6707V18.5792H73.7375L65.5997 6.01741H65.4622V18.5792H63.6436V2.85596Z" fill="#FDC010"/>
<path d="M79.2695 10.7137C79.2695 6.08611 82.7081 2.55811 87.3615 2.55811C90.9834 2.55811 93.7266 4.68865 94.7582 7.88065H92.802C91.9691 5.49811 89.7914 4.26101 87.3615 4.26101C83.8772 4.26101 81.1569 7.02538 81.1569 10.7061C81.1569 14.3868 83.8772 17.1512 87.3615 17.1512C89.7914 17.1512 91.9462 15.937 92.7333 13.5316H94.7582C93.7725 16.7923 90.9605 18.8541 87.3386 18.8541C82.6851 18.8541 79.2695 15.3719 79.2695 10.6985V10.7137Z" fill="#FDC010"/>
<path d="M98.2812 2.85596H107.252V4.52068H100.1V9.75159H106.259V11.3934H100.1V16.945H107.496V18.5869H98.2812V2.85596Z" fill="#FDC010"/>
<path d="M6.95312 23.8176H8.73352L16.5886 36.0282H16.7185V23.8176H18.4378V39.1133H16.5886L8.82521 26.9027H8.69531V39.1133H6.96077V23.8176H6.95312Z" fill="#FDC010"/>
<path d="M22.4268 23.8176H30.9849V25.4365H24.1613V30.53H30.0374V32.126H24.1613V37.5249H31.2217V39.1209H22.4268V23.8176Z" fill="#FDC010"/>
<path d="M37.4869 25.4365H32.8945V23.8176H43.8138V25.4365H39.2214V39.1133H37.4869V25.4365Z" fill="#FDC010"/>
<path d="M45.3042 23.8176H47.1686L50.2327 36.9522H50.3626L53.7324 23.8176H55.9178L59.2875 36.9522H59.4174L62.4815 23.8176H64.346L60.5025 39.1133H58.2483L54.8786 26.2002H54.7487L51.3789 39.1133H49.1248L45.2812 23.8176H45.3042Z" fill="#FDC010"/>
<path d="M65.4998 31.4693C65.4998 26.9715 68.8008 23.5352 73.2633 23.5352C77.7257 23.5352 81.0267 27.0097 81.0267 31.4693C81.0267 35.929 77.7257 39.4035 73.2403 39.4035C68.755 39.4035 65.4922 36.0206 65.4922 31.4693H65.4998ZM79.231 31.4693C79.231 27.8879 76.7018 25.1999 73.2633 25.1999C69.8247 25.1999 67.2955 27.8879 67.2955 31.4693C67.2955 35.0508 69.8247 37.7388 73.2633 37.7388C76.7018 37.7388 79.231 35.0966 79.231 31.4693Z" fill="#FDC010"/>
<path d="M84.0682 23.8176H89.1496C92.2137 23.8176 94.0399 25.6504 94.0399 28.3384C94.0399 30.5911 92.6034 32.2482 90.907 32.7522L94.422 39.1133H92.4047L89.0808 32.9278H85.7951V39.1133H84.0605V23.8176H84.0682ZM89.1496 31.3547C90.907 31.3547 92.2366 30.3467 92.2366 28.3384C92.2366 26.7194 91.1668 25.3907 89.0426 25.3907H85.8027V31.3547H89.1496Z" fill="#FDC010"/>
<path d="M105.8 39.1133L101.054 31.6831L98.9914 34.1267V39.1056H97.2568V23.8176H98.9914V31.5304H99.1213L105.517 23.8176H107.687L102.239 30.2856L107.947 39.1133H105.8Z" fill="#FDC010"/>
<path d="M115.817 1.35938H114.801V40.6332H115.817V1.35938Z" fill="#FDC010"/>
<path d="M137.844 24.9H131.764L130.644 28H128.724L133.764 14.14H135.864L140.884 28H138.964L137.844 24.9ZM137.324 23.42L134.804 16.38L132.284 23.42H137.324ZM142.281 21.02C142.281 19.66 142.588 18.44 143.201 17.36C143.814 16.2667 144.648 15.4133 145.701 14.8C146.768 14.1867 147.948 13.88 149.241 13.88C150.761 13.88 152.088 14.2467 153.221 14.98C154.354 15.7133 155.181 16.7533 155.701 18.1H153.521C153.134 17.26 152.574 16.6133 151.841 16.16C151.121 15.7067 150.254 15.48 149.241 15.48C148.268 15.48 147.394 15.7067 146.621 16.16C145.848 16.6133 145.241 17.26 144.801 18.1C144.361 18.9267 144.141 19.9 144.141 21.02C144.141 22.1267 144.361 23.1 144.801 23.94C145.241 24.7667 145.848 25.4067 146.621 25.86C147.394 26.3133 148.268 26.54 149.241 26.54C150.254 26.54 151.121 26.32 151.841 25.88C152.574 25.4267 153.134 24.78 153.521 23.94H155.701C155.181 25.2733 154.354 26.3067 153.221 27.04C152.088 27.76 150.761 28.12 149.241 28.12C147.948 28.12 146.768 27.82 145.701 27.22C144.648 26.6067 143.814 25.76 143.201 24.68C142.588 23.6 142.281 22.38 142.281 21.02ZM166.53 24.9H160.45L159.33 28H157.41L162.45 14.14H164.55L169.57 28H167.65L166.53 24.9ZM166.01 23.42L163.49 16.38L160.97 23.42H166.01ZM175.987 14.06C177.507 14.06 178.82 14.3467 179.927 14.92C181.047 15.48 181.9 16.2867 182.487 17.34C183.087 18.3933 183.387 19.6333 183.387 21.06C183.387 22.4867 183.087 23.7267 182.487 24.78C181.9 25.82 181.047 26.62 179.927 27.18C178.82 27.7267 177.507 28 175.987 28H171.647V14.06H175.987ZM175.987 26.5C177.787 26.5 179.16 26.0267 180.107 25.08C181.053 24.12 181.527 22.78 181.527 21.06C181.527 19.3267 181.047 17.9733 180.087 17C179.14 16.0267 177.773 15.54 175.987 15.54H173.467V26.5H175.987ZM187.487 15.54V20.2H192.567V21.7H187.487V26.5H193.167V28H185.667V14.04H193.167V15.54H187.487ZM209.941 14.16V28H208.121V17.68L203.521 28H202.241L197.621 17.66V28H195.801V14.16H197.761L202.881 25.6L208.001 14.16H209.941ZM222.668 14.06L218.128 22.74V28H216.308V22.74L211.748 14.06H213.768L217.208 21.12L220.648 14.06H222.668Z" fill="#303030"/>
</svg>
